<svg width="57" height="47" viewBox="0 0 57 47" fill="none" xmlns="http://www.w3.org/2000/svg">
<path d="M56.9756 29.0441C56.9313 28.3393 56.8342 27.6291 56.6735 26.9409C56.2301 25.0318 55.4648 23.2531 54.4696 21.5661C53.3719 19.7096 52.0856 17.9976 50.5997 16.4383C49.8264 15.628 49.0197 14.8455 48.2211 14.0574C47.9883 13.83 47.7444 13.6106 47.4893 13.4109C46.3943 12.5479 45.3326 11.6379 44.1794 10.8635C42.2055 9.53438 40.2264 8.19424 38.1498 7.03991C36.1926 5.95218 34.1413 5.01158 32.065 4.16792C29.9691 3.31593 27.807 2.61405 25.6446 1.9425C24.2476 1.50966 22.8033 1.21537 21.37 0.918669C20.2168 0.679963 19.0552 0.491468 17.8881 0.347009C16.6045 0.186171 15.3099 0.0500348 14.0153 0.0140543C12.6043 -0.0275649 11.1906 0.0307024 9.7793 0.0916544C9.39114 0.108302 9.00298 0.127634 8.61508 0.160929C8.14108 0.202548 7.66976 0.260814 7.20675 0.352377C5.77079 0.635387 4.34314 0.976668 2.93213 1.36789C2.49702 1.49006 1.15253 1.91726 0.484313 3.14382C0.340261 3.4075 0.124048 3.88759 0.0269403 4.44798C-0.147693 5.46644 0.545206 6.44597 1.56833 6.57915C1.57664 6.57915 1.58228 6.57915 1.58764 6.58184C2.43049 6.68172 3.28408 6.72066 4.13525 6.74563C4.4263 6.75395 4.74794 6.70132 5.00573 6.57083C5.22194 6.46262 5.43252 6.22686 5.50736 5.99917C5.54331 5.88827 5.29678 5.60794 5.12215 5.51907C4.6342 5.28036 4.08803 5.15846 3.58077 4.96405C3.42545 4.90579 3.26476 4.87518 3.10113 4.8392C3.02897 4.82255 2.97907 4.7616 2.97371 4.68669V4.67836C2.97371 4.62009 3.00429 4.56451 3.05687 4.53417C3.19824 4.45362 3.33692 4.37333 3.48661 4.34836C4.63983 4.15691 5.79037 3.89887 6.94896 3.77106C7.23438 3.73777 7.52007 3.7128 7.80549 3.69883C9.93999 3.59895 12.0857 3.58498 14.2146 3.91525C15.4287 4.10402 16.6651 4.17061 17.8572 4.44234C20.0666 4.94741 22.2732 5.48577 24.4439 6.1404C26.1433 6.6538 27.8094 7.28372 29.4254 8.0189C31.7152 9.06234 33.9967 10.1444 36.1757 11.3987C38.0803 12.4947 39.8792 13.7906 41.6564 15.0947C42.9344 16.0326 44.1348 17.0871 45.3017 18.1665C46.0864 18.8906 46.7543 19.7453 47.4612 20.5527C48.7474 22.0234 49.7566 23.6688 50.4828 25.4807C51.2478 27.3871 51.5502 29.3599 51.1314 31.3882C50.685 33.5471 49.5348 35.2951 47.8187 36.6548C46.4743 37.7176 44.9691 38.5279 43.3362 39.0384C41.9279 39.4795 40.4866 39.8321 39.0393 40.1288C37.8668 40.3702 36.6691 40.5726 35.4772 40.6116C34.0053 40.6615 32.5194 40.5922 31.0529 40.4534C29.5893 40.3146 28.145 40.0096 26.6868 39.8208C26.3292 39.7736 26.2933 39.632 26.2986 39.3464C26.3346 37.4732 26.3595 35.6004 26.3845 33.7302C26.4151 31.552 26.44 29.3736 26.4703 27.1954C26.473 27.1178 26.4979 27.04 26.5146 26.9374C27.2603 26.9983 27.9838 27.0566 28.7102 27.1205C29.6915 27.2011 30.684 27.2314 31.6597 27.3842C33.1482 27.6146 34.6341 27.8893 36.1063 28.2195C37.2013 28.4666 38.2963 28.7716 39.2277 29.4571C39.9401 29.9815 39.8293 30.4726 39.2416 30.9471C39.0227 31.1219 38.7566 31.2384 38.5042 31.3689C38.0691 31.591 37.6144 31.7794 37.1956 32.0294C36.6857 32.3318 36.6744 32.676 37.1873 32.9367C38.604 33.6582 40.0177 34.0884 41.5674 33.1808C44.1233 31.6852 44.7719 28.5135 42.6125 26.2938C41.4925 25.1451 40.1258 24.404 38.6345 23.8576C37.0433 23.2722 35.3828 23.0056 33.7306 22.6783C31.5961 22.2594 29.4503 22.0261 27.277 22.029C27.1578 22.029 27.0358 22.015 26.925 22.0097C26.8834 21.3354 26.8392 20.6889 26.8029 20.045C26.7697 19.3957 26.7753 18.7465 26.7115 18.0999C26.6256 17.1896 26.5119 16.2796 26.3788 15.375C26.2182 14.2873 25.5473 13.4603 24.882 12.6529C24.4023 12.0729 23.7593 12.0369 23.3822 12.8749C23.288 13.0857 23.1853 13.2968 23.1354 13.5188C22.847 14.7481 22.5283 15.9746 22.3121 17.2149C22.1099 18.3858 22.0211 19.5762 21.8824 20.7584C21.8268 21.2329 21.7853 21.7103 21.7077 22.1818C21.6911 22.279 21.5637 22.4175 21.4693 22.4371C20.5489 22.6176 19.6202 22.7618 18.6998 22.9449C16.0634 23.4776 13.5188 24.288 11.1345 25.5422C10.1669 26.05 9.23555 26.6273 8.57297 27.5456C7.78296 28.636 7.60269 29.7933 8.20975 31.0086C8.88334 32.3543 9.87856 33.4754 10.8821 34.5771C11.5058 35.2596 12.174 35.8979 12.8782 36.4972C13.9206 37.3825 14.9628 38.2871 16.0967 39.0446C17.5549 40.0158 19.1046 40.8511 20.6041 41.7554C20.7289 41.8304 20.8509 42.0078 20.8729 42.1523C21.006 42.9737 21.0752 43.8061 21.2278 44.6218C21.3609 45.3266 21.638 45.9925 22.1981 46.47C22.9661 47.1222 23.8642 47.1026 24.7457 46.7863C25.2806 46.5948 25.885 46.4034 26.018 45.7125C26.1012 45.2823 26.201 44.8495 26.2037 44.4193C26.2064 44.0142 26.3311 43.9559 26.686 44.0587C28.8787 44.697 31.1299 45.0326 33.3974 45.2104C34.5756 45.3046 35.7648 45.227 36.9486 45.2297C38.6979 45.2353 40.4139 44.9883 42.1243 44.6497C44.306 44.2169 46.4072 43.5397 48.4116 42.5825C49.8199 41.9082 51.1172 41.0646 52.3064 40.038C53.4735 39.0308 54.4604 37.8819 55.1893 36.5361C56.4487 34.2054 57.1419 31.7193 56.9756 29.0441ZM21.392 30.1209C21.3837 30.2457 21.3893 30.3706 21.3837 30.4954C21.3282 31.708 21.2866 32.9206 21.2117 34.1332C21.1508 35.1321 21.0537 36.1312 20.9649 37.1301C20.9373 37.4547 20.8874 37.7823 20.8458 38.1346C18.4895 37.205 16.2745 36.0866 14.2342 34.6356C12.6319 33.5006 11.1737 32.2077 9.92067 30.6955C9.30798 29.96 9.50756 29.2748 10.3059 28.9389C11.3759 28.4867 12.5042 28.1564 13.6352 27.8901C14.7967 27.6154 15.9915 27.4599 17.178 27.2991C17.9098 27.1965 18.6529 27.1742 19.393 27.1216C20.0998 27.069 20.8067 27.019 21.5581 26.9634C21.5031 28.0343 21.4449 29.0774 21.392 30.1209Z" fill="#C9CCCE"/>
</svg>
