<svg width="73" height="37" viewBox="0 0 73 37" fill="none" xmlns="http://www.w3.org/2000/svg">
<g clip-path="url(#clip0)">
<path fill-rule="evenodd" clip-rule="evenodd" d="M58.2294 0.969222C58.2294 0.392117 58.6784 0.00012207 59.262 0.00012207C59.8457 0.00012207 60.2946 0.392117 60.2946 0.969222C60.2946 1.54633 59.8344 1.93832 59.262 1.93832C58.6896 1.93832 58.2294 1.54633 58.2294 0.969222ZM58.5437 0.969222C58.5437 1.36122 58.8467 1.65521 59.262 1.65521C59.6773 1.65521 59.9804 1.36122 59.9804 0.969222C59.9804 0.577226 59.6773 0.272341 59.262 0.272341C58.8467 0.272341 58.5437 0.577226 58.5437 0.969222ZM17.2624 19.2623H22.3019L29.7321 0.0545683H25.0517L21.7182 8.66757L22.2907 0.0545683H17.3185L9.88829 19.2623H14.5686L17.8348 10.7691L17.2624 19.2623ZM11.2014 23.6178C11.2014 23.0407 11.6504 22.6487 12.234 22.6487C12.8177 22.6487 13.2666 23.0407 13.2666 23.6178C13.2666 24.1949 12.8065 24.5869 12.234 24.5869C11.6616 24.5869 11.2014 24.1949 11.2014 23.6178ZM11.5157 23.6178C11.5157 24.0098 11.8188 24.3038 12.234 24.3038C12.6493 24.3038 12.9524 24.0098 12.9524 23.6178C12.9524 23.2258 12.6493 22.9209 12.234 22.9209C11.8188 22.9209 11.5157 23.2258 11.5157 23.6178ZM22.9079 19.2623L30.3381 0.0545683H35.0185L27.5883 19.2623H22.9079ZM2.09887 34.561C-3.35593 29.9986 2.8172 20.0898 9.34949 12.6419C3.71511 23.5851 11.5045 27.6357 18.351 25.7738C18.351 25.7738 30.4475 22.5912 43.2042 19.2361L36.4552 19.2515L36.2419 11.2264L33.0992 19.2515H28.4189L35.7817 0.0545683H40.5182L38.251 5.81472L43.1558 0.0545683H48.0157H48.0606H57.4326L56.1755 3.25586H51.439L49.9014 7.29559H54.4021L53.0216 10.878H48.5208L46.725 15.5275H52.1798L51.6256 17.0213C62.7408 14.0985 72.3796 11.5651 72.4837 11.5421C73.0898 11.4006 73.1796 11.6946 72.697 11.9233C72.697 11.9233 22.9753 32.8732 18.4745 34.6154L18.3866 34.6496C13.8882 36.4021 7.33987 38.9531 2.09887 34.561ZM12.4141 23.6832C12.5602 23.6723 12.6725 23.607 12.6725 23.411C12.6725 23.1606 12.504 23.0952 12.2232 23.0952H11.8188V24.1405H12.0884V23.6941H12.1333L12.3804 24.1405H12.695L12.4141 23.6832ZM12.2344 23.5199H12.0771V23.2803H12.2119C12.2906 23.2803 12.3804 23.2912 12.3804 23.3892C12.3804 23.4981 12.3355 23.5199 12.2344 23.5199ZM59.4421 1.03454C59.5881 1.02366 59.7005 0.958323 59.7005 0.762326C59.7005 0.511885 59.532 0.446552 59.2511 0.446552H58.8467V1.49187H59.1163V1.04543H59.1613L59.4084 1.49187H59.7229L59.4421 1.03454ZM59.2624 0.871213H59.1051V0.631661H59.2399C59.3185 0.631661 59.4084 0.64255 59.4084 0.740548C59.4084 0.849436 59.3635 0.871213 59.2624 0.871213ZM40.7988 7.9707L41.1018 17.9775L47.8698 0.435675L40.7988 7.9707Z" fill="#C9CCCE"/>
</g>
<defs>
<clipPath id="clip0">
<rect width="73" height="37" fill="white" transform="translate(0 0.00012207)"/>
</clipPath>
</defs>
</svg>
