<svg width="37" height="47" viewBox="0 0 37 47" fill="none" xmlns="http://www.w3.org/2000/svg">
<path d="M0 21.3636H9.59259V31.3333H0V21.3636Z" fill="#C9CCCE"/>
<path d="M21.9967 36.9523C21.9967 39.983 22.4276 41.9483 23.2809 42.8547C24.0085 43.6267 25.2418 44.1001 26.9733 44.282C27.4868 44.3278 28.3628 44.3477 29.6011 44.3477V47H7.39717V44.3477C9.17852 44.3477 10.499 44.2568 11.3466 44.082C13.0674 43.7047 14.1528 42.6681 14.5996 40.9645C14.8277 40.0798 14.9489 38.744 14.9489 36.9529V2.25569C11.1779 2.36774 8.23235 3.66074 6.10391 6.13643C4.08305 8.503 2.85151 12.1321 2.40646 17.0189L0 16.593L0.44845 0H36.5515L37 16.593L34.5986 17.0189C34.1502 12.1321 32.9113 8.503 30.8819 6.13643C28.7422 3.66015 25.7836 2.36774 21.9984 2.25569V36.9523H21.9967Z" fill="#C9CCCE"/>
<path d="M27.4073 21.3636H36.9999V31.3333H27.4073V21.3636Z" fill="#C9CCCE"/>
</svg>
