<svg width="109" height="23" viewBox="0 0 109 23" fill="none" xmlns="http://www.w3.org/2000/svg">
<g clip-path="url(#clip0)">
<path d="M28.2505 11.3675C28.2505 10.0128 27.1833 8.89373 25.79 8.89373C24.4264 8.89373 23.3296 10.0128 23.3296 11.3675C23.3296 12.7222 24.3968 13.8118 25.79 13.8118C27.1833 13.8118 28.2505 12.7222 28.2505 11.3675ZM32.5192 11.3969C32.5192 14.9014 29.5252 17.6991 25.8197 17.6991C22.0846 17.6991 19.1202 14.9014 19.1202 11.3969C19.1202 7.863 22.1142 5.03585 25.8197 5.03585C29.5252 5.0064 32.5192 7.863 32.5192 11.3969ZM45.8885 8.83483C45.8885 6.47887 44.2284 4.41741 41.768 4.41741H38.359V13.3406H41.768C44.2284 13.3406 45.8885 11.1908 45.8885 8.83483ZM50.4833 8.83483C50.4833 13.8707 46.8964 17.3163 41.8569 17.3163H34.5646C34.2089 17.3163 33.9421 17.0512 33.9421 16.7273V1.00128C33.9421 0.677337 34.2089 0.412292 34.5646 0.412292H41.8569C46.926 0.441741 50.4833 3.79898 50.4833 8.83483ZM57.6274 13.8118C58.991 13.8118 60.0878 12.6927 60.0878 11.338C60.0878 9.98335 59.0207 8.86428 57.6274 8.86428C56.2638 8.86428 55.167 9.98335 55.167 11.338C55.167 12.7222 56.2638 13.8118 57.6274 13.8118ZM56.9753 5.0064C58.4278 5.0064 59.5839 5.53649 60.0878 6.27273V5.91933C60.0878 5.59539 60.3546 5.3598 60.6511 5.3598H63.734C64.0601 5.3598 64.2973 5.59539 64.2973 5.91933V16.7567C64.2973 17.0807 64.0601 17.3163 63.734 17.3163H60.6807C60.3546 17.3163 60.1175 17.0807 60.1175 16.7567V16.4033C59.6135 17.1396 58.4278 17.6697 56.9753 17.6697C53.8923 17.6697 50.9279 15.2254 50.9279 11.3086C50.9279 7.39181 53.8923 5.0064 56.9753 5.0064ZM71.56 13.8118C72.9236 13.8118 74.0204 12.6927 74.0204 11.338C74.0204 9.98335 72.9532 8.86428 71.56 8.86428C70.1964 8.86428 69.0995 9.98335 69.0995 11.338C69.0995 12.7222 70.1964 13.8118 71.56 13.8118ZM70.8189 5.0064C72.3011 5.0064 73.4572 5.56594 73.9908 6.21383V1.00128C73.9908 0.677337 74.2576 0.441741 74.554 0.441741H77.6666C77.9927 0.441741 78.2298 0.677337 78.2298 1.00128V16.7862C78.2298 17.1101 77.9927 17.3457 77.6666 17.3457H74.6133C74.2872 17.3457 74.05 17.1101 74.05 16.7862V16.4328C73.4275 17.169 72.3604 17.6991 70.9078 17.6991C67.8249 17.6991 64.8605 15.2548 64.8605 11.338C64.8605 7.42125 67.7952 5.0064 70.8189 5.0064ZM85.4925 13.8118C86.8561 13.8118 87.953 12.6927 87.953 11.338C87.953 9.98335 86.8858 8.86428 85.4925 8.86428C84.1289 8.86428 83.0321 9.98335 83.0321 11.338C83.0617 12.7222 84.1289 13.8118 85.4925 13.8118ZM84.7811 5.0064C86.2633 5.0064 87.4194 5.56594 87.953 6.21383V1.00128C87.953 0.677337 88.2197 0.441741 88.5162 0.441741H91.5991C91.9252 0.441741 92.1624 0.677337 92.1624 1.00128V16.7862C92.1624 17.1101 91.9252 17.3457 91.5991 17.3457H88.5458C88.2197 17.3457 87.9826 17.1101 87.9826 16.7862V16.4328C87.3601 17.169 86.2929 17.6991 84.8404 17.6991C81.7574 17.6991 78.793 15.2548 78.793 11.338C78.793 7.42125 81.7278 5.0064 84.7811 5.0064ZM102.419 19.0538C101.648 21.5864 99.8697 23 97.0832 23C95.5714 23 94.0892 22.4994 93.1406 21.6748C92.9924 21.5275 92.9035 21.3508 92.9035 21.1741C92.9035 21.0269 92.9627 20.8502 93.111 20.6735L94.2671 18.936C94.4449 18.7004 94.7117 18.6709 94.771 18.6709C95.0378 18.6709 95.1564 18.7298 95.3935 18.9065C95.7493 19.1421 96.2532 19.4366 96.8164 19.4366C97.2907 19.4366 97.9132 19.2305 98.1504 18.5237L98.5358 17.3163H96.6386C96.2532 17.3163 96.0161 17.0512 95.8975 16.7273L92.7849 6.33163C92.7256 6.06658 92.696 5.91933 92.696 5.83099C92.696 5.59539 92.8738 5.38924 93.1999 5.38924H96.8757C97.2018 5.38924 97.3797 5.68374 97.4686 5.97823L99.514 13.4584H99.6622L101.293 5.97823C101.352 5.68374 101.559 5.38924 101.886 5.38924H105.621C105.976 5.38924 106.125 5.59539 106.125 5.83099C106.125 5.91933 106.095 6.06658 106.036 6.33163L102.419 19.0538ZM14.7329 14.9898C13.2507 17.0218 10.82 17.6991 8.65597 17.6991C3.67582 17.6991 0 14.0179 0 8.89373C0.0296437 3.97567 4.0019 0.0588988 9.18956 0.0588988C13.0432 0.0588988 16.1262 1.67862 17.5194 4.77081C17.6973 5.1242 17.8159 5.71319 16.7784 5.88988L14.0511 6.36108C13.4286 6.47887 13.0729 6.06658 12.9543 5.88988C12.1539 4.80026 10.8496 4.06402 9.27849 4.06402C6.55126 4.06402 4.62442 6.12548 4.62442 8.86428C4.62442 11.8976 6.81806 13.6645 9.2192 13.6645C10.82 13.6645 12.1243 13.0755 12.984 11.9565H10.5828C10.2271 11.9565 9.96029 11.6914 9.96029 11.3675V9.09987C9.96029 8.77593 10.2271 8.51088 10.5828 8.51088H17.9048C18.2605 8.51088 18.5273 8.77593 18.5273 9.09987V16.7273C18.5273 17.0512 18.2605 17.3163 17.9048 17.3163H15.3555C14.9997 17.3163 14.7329 17.0512 14.7329 16.7273V14.9898ZM106.658 0C105.354 0 104.287 1.06018 104.287 2.35595C104.287 3.65173 105.354 4.71191 106.658 4.71191C107.962 4.71191 109.03 3.65173 109.03 2.35595C109.03 1.06018 107.962 0 106.658 0ZM106.658 4.24072C105.621 4.24072 104.761 3.38668 104.761 2.35595C104.761 1.32522 105.621 0.471191 106.658 0.471191C107.696 0.471191 108.555 1.32522 108.555 2.35595C108.555 3.38668 107.696 4.24072 106.658 4.24072Z" fill="#C9CCCE"/>
<path d="M107.133 1.91424C107.133 1.79645 107.103 1.7081 107.014 1.67865C106.955 1.61975 106.836 1.56085 106.747 1.56085H106.332V2.23819H106.747C106.866 2.23819 106.955 2.20874 107.014 2.12039C107.073 2.06149 107.133 2.00259 107.133 1.91424ZM106.214 3.65176H105.769C105.739 3.65176 105.739 3.65176 105.71 3.62231C105.71 3.59286 105.68 3.59286 105.68 3.56341V1.11911C105.68 1.08966 105.68 1.08966 105.71 1.06021C105.739 1.06021 105.739 1.03076 105.769 1.03076H106.747C107.073 1.03076 107.31 1.08966 107.488 1.26636C107.666 1.44305 107.755 1.6492 107.755 1.88479C107.755 2.06149 107.725 2.20874 107.607 2.32654C107.488 2.47378 107.399 2.56213 107.251 2.65048L107.814 3.50451C107.844 3.53396 107.844 3.56341 107.814 3.62231C107.814 3.65176 107.785 3.65176 107.755 3.65176H107.31C107.281 3.65176 107.251 3.65176 107.192 3.62231C107.162 3.62231 107.162 3.59286 107.133 3.56341L106.658 2.76828H106.302V3.53396C106.302 3.56341 106.302 3.56341 106.273 3.59286C106.243 3.62231 106.243 3.65176 106.214 3.65176Z" fill="#C9CCCE"/>
</g>
<defs>
<clipPath id="clip0">
<rect width="109" height="23" fill="white"/>
</clipPath>
</defs>
</svg>
