<svg width="47" height="47" viewBox="0 0 47 47" fill="none" xmlns="http://www.w3.org/2000/svg">
<path d="M10.4162 28.4027L8.78019 34.5101L2.80063 34.6366C1.01362 31.3221 0 27.5299 0 23.5C0 19.6031 0.947711 15.9283 2.62759 12.6926L7.95237 13.6686L10.2844 18.9601C9.79629 20.383 9.53026 21.9105 9.53026 23.5C9.53045 25.2251 9.84292 26.8779 10.4162 28.4027Z" fill="#C9CCCE"/>
<path d="M46.5894 19.1099C46.8593 20.5315 47 21.9996 47 23.5C47 25.1825 46.8231 26.8236 46.4861 28.4067C45.3421 33.7936 42.353 38.4974 38.2121 41.8262L38.2108 41.8249L31.5056 41.4828L30.5566 35.5587C33.3043 33.9473 35.4516 31.4255 36.5827 28.4067H24.0166V19.1099H46.5894Z" fill="#C9CCCE"/>
<path d="M38.2108 41.8249L38.2121 41.8262C34.1849 45.0632 29.0689 47 23.4999 47C14.5506 47 6.76984 41.9978 2.80063 34.6366L10.4162 28.4027C12.4008 33.6992 17.51 37.4697 23.4999 37.4697C26.0746 37.4697 28.4869 36.7737 30.5566 35.5587L38.2108 41.8249Z" fill="#C9CCCE"/>
<path d="M38.5 5.41014L30.887 11.6428C28.7449 10.3038 26.2128 9.53035 23.5 9.53035C17.3745 9.53035 12.1695 13.4737 10.2844 18.9601L2.62891 12.6926C6.54001 5.15192 14.4177 0 23.5 0C29.202 0 34.4301 2.0311 38.5 5.41014Z" fill="#C9CCCE"/>
</svg>
