<svg width="101" height="19" viewBox="0 0 101 19" fill="none" xmlns="http://www.w3.org/2000/svg">
<g clip-path="url(#clip0)">
<path d="M28.1738 0.942358C27.9115 1.46476 27.9115 1.96975 27.9115 2.49215V9.02218C27.9115 9.02218 31.4267 4.47728 32.2312 3.39765C32.8432 2.59663 33.5952 1.46476 33.5952 0.942358H45.0676C44.2807 1.46476 43.4062 2.40508 42.6892 3.27575C42.0596 4.04194 38.492 8.37788 38.492 8.37788C38.492 8.37788 43.791 16.4055 44.473 17.4329C44.8578 17.9901 45.2775 18.5125 45.7672 18.9827H32.5634C32.5634 18.4602 32.0563 17.398 31.4966 16.5622C30.937 15.7263 27.9115 11.1466 27.9115 11.1466V17.4329C27.9115 17.9553 27.9115 18.4602 28.1738 18.9827H17.1736C17.4359 18.4602 17.4359 17.9553 17.4359 17.4329V2.49215C17.4359 1.96975 17.4359 1.46476 17.1736 0.942358H28.1738ZM68.9044 0.942358H47.6734C47.9357 1.46476 47.9357 1.96975 47.9357 2.49215V17.4329C47.9357 17.9553 47.9357 18.4602 47.6734 18.9827H68.9044V13.985C68.3797 14.2462 67.8725 14.2462 67.3479 14.2462H58.4113V11.878H66.9981V8.06444H58.4113V5.6788H67.3479C67.8725 5.6788 68.3797 5.6788 68.9044 5.92259V0.942358ZM98.3199 17.4329C98.4948 18.0075 98.7921 18.5299 99.1768 18.9827H87.6694C87.7219 18.4602 87.5295 17.9553 87.3197 17.4329C87.3197 17.4329 87.1448 17.0149 86.8999 16.4055L86.795 16.1443H80.1669L80.062 16.4229C80.062 16.4229 79.8696 16.9279 79.6947 17.4503C79.5198 17.9727 79.3275 18.4777 79.3974 19.0001H70.3209C70.6882 18.5473 70.968 18.0249 71.1429 17.4503L76.5818 2.50956C76.7741 1.98716 76.9665 1.48217 76.8966 0.95977H92.2339C92.094 1.48217 92.3738 1.98716 92.5662 2.50956C93.0209 3.64144 97.9351 16.4229 98.3199 17.4329ZM85.3435 12.3307L83.7345 8.15151C83.5946 7.76841 83.4722 7.3679 83.3848 6.9674C83.3148 7.3679 83.2099 7.76841 83.07 8.15151C83.0175 8.32564 82.3355 10.1541 81.5485 12.3307H85.3435ZM11.6998 2.49215C11.6998 1.96975 11.6998 1.46476 11.9621 0.942358H0C0.262326 1.46476 0.262326 1.96975 0.262326 2.49215V17.4329C0.262326 17.9553 0.262326 18.4602 0 18.9827H11.9621C11.6998 18.4602 11.6998 17.9553 11.6998 17.4329V2.49215ZM94.6473 2.37026C94.6123 3.67626 95.6441 4.77331 96.9733 4.80813C98.2849 4.84296 99.3867 3.81557 99.4216 2.49215C99.4216 2.45732 99.4216 2.40508 99.4216 2.37026C99.4391 1.08166 98.4248 0.0194456 97.1307 0.00203218C97.0957 0.00203218 97.0782 0.00203218 97.0432 0.00203218C95.7666 -0.050208 94.6998 0.942356 94.6648 2.21353C94.6298 2.26577 94.6298 2.31802 94.6473 2.37026ZM98.932 2.37026C98.9669 3.41506 98.1275 4.30314 97.0782 4.32056C96.0289 4.35538 95.137 3.51954 95.1195 2.47474C95.1195 2.43991 95.1195 2.40508 95.1195 2.35284C95.0845 1.34286 95.8715 0.489609 96.8858 0.454782C96.9383 0.454782 96.9733 0.454782 97.0257 0.454782C98.0575 0.437368 98.9145 1.2558 98.932 2.28319C98.932 2.31802 98.932 2.35284 98.932 2.37026ZM98.1975 3.79816H97.7253L97.1656 2.78818H96.5535V3.79816H96.1338V0.942358H97.2006C97.7078 0.959771 98.0925 1.36028 98.0925 1.86527C98.0925 2.21353 97.9001 2.52698 97.5854 2.70111L98.1975 3.79816ZM97.1307 2.37026C97.4105 2.38767 97.6553 2.17871 97.6553 1.9001C97.6553 1.62148 97.4629 1.37769 97.1831 1.37769C97.1656 1.37769 97.1481 1.37769 97.1307 1.37769H96.5535V2.38767H97.1307" fill="#C9CCCE"/>
</g>
<defs>
<clipPath id="clip0">
<rect width="101" height="19" fill="white"/>
</clipPath>
</defs>
</svg>
