<svg width="79" height="19" viewBox="0 0 79 19" fill="none" xmlns="http://www.w3.org/2000/svg">
<path d="M0 0.242065H7.53984L13.8679 11.2215C13.8679 11.2215 13.8679 3.27087 13.8679 2.65134C13.8679 1.68763 12.673 0.431366 12.2522 0.242065C12.7571 0.242065 17.1666 0.242065 17.4695 0.242065C17.1498 0.328111 16.1231 1.60158 16.1231 2.65134C16.1231 3.16761 16.1231 14.6977 16.1231 15.2484C16.1231 16.0228 17.2171 17.0898 17.7388 17.5028H10.4683L4.0392 6.47176C4.0392 6.47176 4.0392 14.6977 4.0392 15.1452C4.0392 16.0056 4.86387 16.8316 5.7222 17.5372H0.1683C0.959309 17.193 1.71666 16.1089 1.78398 15.2484C1.8513 14.388 1.78398 3.28808 1.78398 2.80622C1.78398 1.75647 0.79101 0.896012 0 0.242065Z" fill="#C9CCCE"/>
<path d="M68.9693 17.5028H79C78.4446 17.3651 77.8219 16.694 77.4853 15.7991C77.1487 14.9042 71.8304 0.242065 71.8304 0.242065H68.343C66.9101 0.553952 64.9481 -0.0137763 63.7105 0.870772C63.7071 0.902896 64.5318 2.82687 64.5262 2.85785C64.3601 3.8904 61.3756 14.9432 61.1939 15.4893C60.9414 16.2465 59.6455 17.0898 59.1238 17.5372H64.5262C63.9876 16.9177 63.5501 16.3154 63.651 15.627C63.752 14.9386 64.055 13.5619 64.055 13.5619H69.6425C69.895 14.2503 70.0835 14.8687 70.1811 15.4549C70.2989 16.1605 69.592 16.9521 68.9693 17.5028ZM64.5599 11.3591L66.4448 5.06062L68.9357 11.3591H64.5599ZM63.7105 0.870772C63.9876 0.661968 68.0659 0.452017 68.343 0.242065H63.0788C63.2247 0.379738 63.4659 0.596573 63.7105 0.870772Z" fill="#C9CCCE"/>
<path d="M25.3459 15.627C25.4469 14.9386 25.7498 13.5619 25.7498 13.5619H31.3373C31.5898 14.2503 31.7783 14.8687 31.8759 15.4549C31.9937 16.1605 31.2869 16.9521 30.6641 17.5028H39.4954C39.6794 17.3766 39.8623 17.2504 40.0452 17.1253C39.703 16.8156 39.3877 16.3509 39.1801 15.7991C38.8435 14.9042 33.5252 0.242065 33.5252 0.242065H24.7737C25.1944 0.637875 26.4062 1.70484 26.221 2.85785C26.0561 3.8904 23.0705 14.9432 22.8887 15.4893C22.6362 16.2465 21.3403 17.0898 20.8186 17.5372H26.221C25.6825 16.9177 25.2449 16.3154 25.3459 15.627ZM28.1397 5.06062L30.6305 11.3591H26.2547L28.1397 5.06062Z" fill="#C9CCCE"/>
<path d="M55.8521 8.80992C54.205 9.93195 52.467 11.1033 50.6359 12.3263C51.4572 12.7336 52.1113 13.2453 52.1742 13.9061C52.2909 15.1475 49.8516 15.7475 47.6469 15.4893C47.2059 15.4377 46.7849 15.3719 46.372 15.2136C45.2741 14.7926 44.8436 14.3967 44.4492 14.1161C43.1241 14.6272 43.9151 16.7731 43.2543 17.2183V19C43.6918 18.1223 44.6489 17.3365 45.3917 17.2963C45.7114 17.2791 46.8222 18.3288 51.4 18.0707C53.6215 17.9457 57.9132 15.5238 57.8459 12.7359C57.8055 11.0884 56.964 9.80345 55.8521 8.80992ZM43.2531 13.1145L43.2543 17.2183C43.6593 16.9418 44.0576 14.3811 44.4492 14.1161C43.8332 13.6778 43.3968 13.2682 43.2531 13.1145ZM55.8521 8.80992C54.8739 8.07922 53.4286 7.18652 53.0145 6.9869C50.8603 5.95435 48.6051 5.76505 48.1338 4.37111C47.8017 3.3879 48.7397 2.47811 51.0286 2.51253C53.3175 2.54695 55.4381 3.94089 56.0103 4.43995V0C55.842 0.172091 55.1037 1.03829 54.4283 0.894876C53.1323 0.619531 50.9276 0.260433 48.4031 0.275348C45.5084 0.292557 43.0175 2.58022 42.9334 5.4725C42.8156 9.51663 45.9796 10.618 47.7636 11.2548C47.9476 11.3202 50.4081 12.2517 50.6359 12.3263C52.3469 11.1882 52.9354 11.1849 53.7276 10.718C54.2594 10.4047 55.0353 9.35946 55.8521 8.80992Z" fill="#C9CCCE"/>
</svg>
