<svg width="47" height="48" viewBox="0 0 47 48" fill="none" xmlns="http://www.w3.org/2000/svg">
<path d="M37.8586 16.7194C36.7082 17.036 26.1856 25.3697 25.492 27.4145C25.3391 28.1207 25.5074 34.9697 25.6603 35.9967C26.3539 36.154 31.3594 36.0171 32.2779 36.1738L32.1678 38.291C31.2681 38.2197 24.9076 38.2365 21.2785 38.2365C19.4339 38.2365 13.5051 38.4447 11.6842 38.3906L12.0284 36.3755C13.0277 36.2999 17.1621 36.5635 18.0683 35.577C18.519 35.0864 18.3774 28.5775 18.2244 27.477C17.8416 26.2999 8.62008 14.4997 6.21073 12.5663H0V9.59985H20.9458V9.80452C20.9642 9.80452 20.9991 9.80787 21.0169 9.81155L20.9458 10.3129V12.5662H14.6296C17.4447 16.7704 21.481 21.8462 23.2025 24.2853L31.639 16.4772H26.6243L25.9179 13.5139H44.2871L44.1515 13.7252C44.1657 13.7252 44.1963 13.7285 44.2163 13.7285L42.904 15.6722C42.8923 15.6722 42.8724 15.6756 42.8622 15.6788L42.3327 16.4772H38.9444C38.5058 16.5759 38.1197 16.664 37.8586 16.7194ZM43.8524 35.2979L42.2306 35.2162L40.4211 34.9906L40.4365 38.1584L41.8635 38.284L43.4015 38.4001L43.8524 35.2979ZM47 20.1556C46.4529 20.1359 41.4769 19.6549 40.8302 19.5241L40.9067 32.9067L43.7228 33.139L47 20.1556Z" fill="#C9CCCE"/>
</svg>
